<svg width="14" height="9" viewBox="0 0 14 9" fill="none" xmlns="http://www.w3.org/2000/svg">
<path fill-rule="evenodd" clip-rule="evenodd" d="M6.29315 1.0014C6.48067 0.813927 6.73498 0.708612 7.00014 0.708612C7.26531 0.708612 7.51962 0.813927 7.70714 1.0014L13.3641 6.6584C13.4597 6.75064 13.5358 6.86099 13.5882 6.98299C13.6407 7.105 13.6682 7.23622 13.6694 7.369C13.6705 7.50178 13.6452 7.63345 13.595 7.75635C13.5447 7.87925 13.4704 7.9909 13.3765 8.08479C13.2826 8.17869 13.171 8.25294 13.0481 8.30322C12.9252 8.3535 12.7935 8.3788 12.6607 8.37765C12.528 8.37649 12.3967 8.34891 12.2747 8.2965C12.1527 8.24409 12.0424 8.16791 11.9501 8.0724L7.00014 3.1224L2.05014 8.0724C1.86154 8.25456 1.60894 8.35535 1.34674 8.35307C1.08455 8.35079 0.833735 8.24563 0.648327 8.06022C0.462919 7.87481 0.357749 7.624 0.355471 7.3618C0.353192 7.0996 0.453986 6.847 0.636144 6.6584L6.29315 1.0014Z" fill="#2A2A2A"/>
</svg>
