<svg width="14" height="8" viewBox="0 0 14 8" fill="none" xmlns="http://www.w3.org/2000/svg">
<path fill-rule="evenodd" clip-rule="evenodd" d="M7.70685 7.41559C7.51933 7.60307 7.26502 7.70838 6.99985 7.70838C6.73469 7.70838 6.48038 7.60307 6.29285 7.41559L0.635855 1.7586C0.540345 1.66635 0.464162 1.556 0.411753 1.434C0.359344 1.312 0.331758 1.18078 0.330604 1.048C0.32945 0.915217 0.354752 0.783538 0.405033 0.660641C0.455314 0.537745 0.529567 0.426092 0.62346 0.3322C0.717353 0.238307 0.829004 0.164054 0.951901 0.113773C1.0748 0.0634921 1.20648 0.0381906 1.33926 0.0393444C1.47204 0.0404982 1.60325 0.0680845 1.72526 0.120494C1.84726 0.172902 1.95761 0.249084 2.04985 0.344595L6.99985 5.2946L11.9499 0.344595C12.1385 0.162437 12.3911 0.0616422 12.6533 0.0639206C12.9155 0.066199 13.1663 0.171368 13.3517 0.356776C13.5371 0.542184 13.6423 0.792997 13.6445 1.05519C13.6468 1.31739 13.546 1.56999 13.3639 1.7586L7.70685 7.41559Z" fill="#2A2A2A"/>
</svg>
