<svg width="24" height="24" viewBox="0 0 24 24" fill="none" xmlns="http://www.w3.org/2000/svg">
<path d="M9.60362 4.8838C10.26 4.7902 10.8 5.3374 10.8 5.9998V13.1998H18C18.6624 13.1998 19.2096 13.7398 19.116 14.3962C18.8085 16.4947 17.7189 18.3992 16.0657 19.7277C14.4125 21.0562 12.318 21.7104 10.2026 21.559C8.0871 21.4076 6.10716 20.4618 4.66 18.9114C3.21284 17.361 2.40552 15.3207 2.40002 13.1998C2.39963 11.179 3.12776 9.22575 4.45088 7.69832C5.77399 6.17088 7.60341 5.17162 9.60362 4.8838ZM20.4744 11.9998C21.072 11.9998 21.5868 11.5606 21.5988 10.963L21.6 10.7998C21.6001 9.68293 21.3774 8.57726 20.945 7.54748C20.5126 6.5177 19.8792 5.58449 19.0819 4.80243C18.2845 4.02037 17.3392 3.40518 16.3012 2.99284C15.2633 2.58051 14.1535 2.3793 13.0368 2.401C12.4392 2.413 12 2.929 12 3.5254V10.7998C12 11.1181 12.1265 11.4233 12.3515 11.6483C12.5765 11.8734 12.8818 11.9998 13.2 11.9998H20.4744Z" fill="#EB8917"/>
</svg>
