<svg width="30" height="22" viewBox="0 0 30 22" fill="none" xmlns="http://www.w3.org/2000/svg">
<path d="M29.5123 11.3286C29.4011 11.1331 29.2521 10.9617 29.0739 10.8243C28.8958 10.687 28.6921 10.5865 28.4748 10.5286C27.4888 10.2765 26.4675 10.192 25.4535 10.2786C26.0373 7.69988 25.656 5.66488 25.2723 4.47863C25.1383 4.05957 24.8532 3.7054 24.4723 3.48517C24.0915 3.26493 23.6423 3.19442 23.2123 3.28738C21.8776 3.58674 20.614 4.14337 19.4923 4.92613C18.7116 3.22787 17.5313 1.74391 16.0523 0.601129C15.7488 0.372459 15.3791 0.248779 14.9991 0.248779C14.6192 0.248779 14.2495 0.372459 13.946 0.601129C12.4678 1.74441 11.288 3.22826 10.5073 4.92613C9.38522 4.14308 8.1212 3.58643 6.78601 3.28738C6.35601 3.19453 5.90684 3.26526 5.52618 3.48575C5.14551 3.70625 4.86068 4.06068 4.72726 4.47988C4.34351 5.66613 3.96226 7.70113 4.54601 10.2799C3.53204 10.1933 2.51071 10.2778 1.52476 10.5299C1.3074 10.5877 1.10372 10.6882 0.925597 10.8256C0.747474 10.9629 0.598468 11.1344 0.487264 11.3299C0.370395 11.5308 0.294728 11.753 0.264681 11.9835C0.234635 12.214 0.250811 12.4482 0.312264 12.6724C0.726014 14.2074 1.99976 17.1249 5.86476 19.4386C9.72976 21.7524 13.161 21.7499 14.9998 21.7499C16.8385 21.7499 20.2648 21.7499 24.1323 19.4386C27.9998 17.1274 29.271 14.2074 29.6848 12.6711C29.7466 12.4471 29.7632 12.213 29.7336 11.9825C29.7039 11.752 29.6287 11.5297 29.5123 11.3286ZM20.0598 6.36238C21.0889 5.58633 22.2706 5.03679 23.5273 4.74988C23.594 4.73626 23.6634 4.74789 23.7221 4.78253C23.7808 4.81717 23.8245 4.87235 23.8448 4.93738C24.3373 6.46488 24.821 9.62488 22.521 13.6249C21.5978 15.2026 20.4144 16.6129 19.021 17.7961C19.981 16.1249 20.7498 13.8661 20.7498 10.8961C20.7614 9.35786 20.5285 7.82752 20.0598 6.36238ZM6.15476 4.94113C6.17432 4.87541 6.21772 4.81936 6.27645 4.78398C6.33519 4.7486 6.40503 4.73643 6.47226 4.74988C7.72889 5.03679 8.9106 5.58633 9.93976 6.36238C9.47099 7.82752 9.23809 9.35786 9.24976 10.8961C9.24976 13.8661 10.0185 16.1274 10.976 17.7924C9.58232 16.6094 8.39894 15.1991 7.47601 13.6211C5.17851 9.62488 5.66226 6.46488 6.15476 4.94113ZM6.63476 18.1499C3.22226 16.1111 2.11601 13.5974 1.75976 12.2749C1.75042 12.2413 1.74793 12.2062 1.75244 12.1716C1.75695 12.137 1.76837 12.1037 1.78601 12.0736C1.81316 12.0254 1.85797 11.9895 1.91101 11.9736C2.92124 11.7226 3.97162 11.6771 4.99976 11.8399C5.31691 12.7181 5.71138 13.5664 6.17851 14.3749C7.46098 16.588 9.20979 18.4955 11.3035 19.9649C9.65291 19.6382 8.0726 19.0238 6.63476 18.1499ZM14.9998 20.1074C13.9148 19.3324 10.7498 16.5824 10.7498 10.8961C10.7498 5.47613 13.6173 2.72863 14.8498 1.79863C14.893 1.76617 14.9457 1.74863 14.9998 1.74863C15.0539 1.74863 15.1065 1.76617 15.1498 1.79863C16.3823 2.72863 19.2498 5.47613 19.2498 10.8961C19.2498 16.6174 16.101 19.3336 14.9998 20.1074ZM28.2373 12.2799C27.881 13.5974 26.7748 16.1111 23.3623 18.1549C21.9228 19.0271 20.3413 19.6393 18.6898 19.9636C20.7835 18.4943 22.5323 16.5868 23.8148 14.3736C24.284 13.5658 24.6805 12.7179 24.9998 11.8399C26.0291 11.6784 27.0803 11.7256 28.091 11.9786C28.1441 11.9945 28.1889 12.0304 28.216 12.0786C28.2332 12.1089 28.2442 12.1423 28.2483 12.1768C28.2524 12.2114 28.2495 12.2465 28.2398 12.2799H28.2373Z" fill="#303030"/>
</svg>
