<svg width="20" height="19" viewBox="0 0 20 19" fill="none" xmlns="http://www.w3.org/2000/svg">
<path fill-rule="evenodd" clip-rule="evenodd" d="M10.67 0.217043L19.17 4.96704C19.4195 5.09161 19.6294 5.28328 19.776 5.52051C19.9226 5.75775 20.0002 6.03116 20 6.31004V7.75004C20 8.44004 19.44 9.00004 18.75 9.00004H18V17H19C19.2652 17 19.5196 17.1054 19.7071 17.2929C19.8946 17.4805 20 17.7348 20 18C20 18.2653 19.8946 18.5196 19.7071 18.7071C19.5196 18.8947 19.2652 19 19 19H1C0.734784 19 0.48043 18.8947 0.292893 18.7071C0.105357 18.5196 0 18.2653 0 18C0 17.7348 0.105357 17.4805 0.292893 17.2929C0.48043 17.1054 0.734784 17 1 17H2V9.00004H1.25C0.56 9.00004 0 8.44004 0 7.75004V6.31004C0 5.78804 0.27 5.30804 0.706 5.03604L9.329 0.217043C9.53733 0.112843 9.76706 0.0585938 10 0.0585938C10.2329 0.0585938 10.4617 0.112843 10.67 0.217043ZM15 9.00004H5V17H7V11H9V17H11V11H13V17H15V9.00004ZM10 4.00004C9.73478 4.00004 9.48043 4.1054 9.29289 4.29294C9.10536 4.48047 9 4.73483 9 5.00004C9 5.26526 9.10536 5.51961 9.29289 5.70715C9.48043 5.89469 9.73478 6.00004 10 6.00004C10.2652 6.00004 10.5196 5.89469 10.7071 5.70715C10.8946 5.51961 11 5.26526 11 5.00004C11 4.73483 10.8946 4.48047 10.7071 4.29294C10.5196 4.1054 10.2652 4.00004 10 4.00004Z" fill="#EB8917"/>
</svg>
