<svg width="38" height="37" viewBox="0 0 38 37" fill="none" xmlns="http://www.w3.org/2000/svg">
<path d="M21.9275 0.537109L20.0375 2.42711L22.8375 5.22711C23.2225 5.66461 23.415 6.17211 23.415 6.74961C23.415 7.61586 23.2225 7.86961 22.8375 8.25461L16.625 14.5721L18.375 16.4621L24.7275 10.1446C25.655 9.11211 26.11 7.97461 26.11 6.74961C26.11 5.52461 25.655 4.36961 24.7275 3.33711L21.9275 0.537109ZM14.9625 4.07211L13.0725 5.96211L14.14 6.94211C14.525 7.32711 14.7175 7.85211 14.7175 8.49961C14.7175 9.14711 14.525 9.67211 14.14 10.0571L13.0725 11.0371L14.9625 12.9271L15.9425 11.8596C16.87 10.8271 17.3425 9.70711 17.3425 8.49961C17.3425 7.23961 16.87 6.10211 15.9425 5.05211L14.9625 4.07211ZM33.25 6.85461C32.0425 6.85461 30.9225 7.32711 29.89 8.25461L20.0375 18.1246L21.9275 19.8746L31.6925 10.1446C32.13 9.70711 32.655 9.47961 33.25 9.47961C33.845 9.47961 34.37 9.70711 34.8075 10.1446L35.875 11.2121L37.6775 9.32211L36.6975 8.25461C35.665 7.32711 34.51 6.85461 33.25 6.85461ZM8.75 11.9996L0 36.4996L24.5 27.7496L8.75 11.9996ZM29.75 17.3546C28.525 17.3546 27.405 17.8271 26.355 18.7546L23.5725 21.5371L25.4625 23.4271L28.245 20.6446C28.6825 20.2071 29.1725 19.9796 29.75 19.9796C30.3275 19.9796 30.8525 20.2071 31.29 20.6446L34.125 23.4271L35.9625 21.6246L33.1625 18.7546C32.13 17.8271 30.975 17.3546 29.75 17.3546Z" fill="#7C2037"/>
</svg>
