<svg width="22" height="26" viewBox="0 0 22 26" fill="none" xmlns="http://www.w3.org/2000/svg">
<path d="M22 12.0008V24.0008C22 24.5312 21.7893 25.0399 21.4142 25.415C21.0391 25.7901 20.5304 26.0008 20 26.0008H2C1.46957 26.0008 0.960859 25.7901 0.585786 25.415C0.210714 25.0399 0 24.5312 0 24.0008V12.0008C0 11.4704 0.210714 10.9616 0.585786 10.5866C0.960859 10.2115 1.46957 10.0008 2 10.0008H5C5.26522 10.0008 5.51957 10.1061 5.70711 10.2937C5.89464 10.4812 6 10.7356 6 11.0008C6 11.266 5.89464 11.5204 5.70711 11.7079C5.51957 11.8954 5.26522 12.0008 5 12.0008H2V24.0008H20V12.0008H17C16.7348 12.0008 16.4804 11.8954 16.2929 11.7079C16.1054 11.5204 16 11.266 16 11.0008C16 10.7356 16.1054 10.4812 16.2929 10.2937C16.4804 10.1061 16.7348 10.0008 17 10.0008H20C20.5304 10.0008 21.0391 10.2115 21.4142 10.5866C21.7893 10.9616 22 11.4704 22 12.0008ZM6.7075 6.70829L10 3.41454V15.0008C10 15.266 10.1054 15.5204 10.2929 15.7079C10.4804 15.8954 10.7348 16.0008 11 16.0008C11.2652 16.0008 11.5196 15.8954 11.7071 15.7079C11.8946 15.5204 12 15.266 12 15.0008V3.41454L15.2925 6.70829C15.4801 6.89593 15.7346 7.00134 16 7.00134C16.2654 7.00134 16.5199 6.89593 16.7075 6.70829C16.8951 6.52065 17.0006 6.26615 17.0006 6.00079C17.0006 5.73542 16.8951 5.48093 16.7075 5.29329L11.7075 0.293287C11.6146 0.20031 11.5043 0.126551 11.3829 0.0762268C11.2615 0.0259025 11.1314 0 11 0C10.8686 0 10.7385 0.0259025 10.6171 0.0762268C10.4957 0.126551 10.3854 0.20031 10.2925 0.293287L5.2925 5.29329C5.10486 5.48093 4.99944 5.73542 4.99944 6.00079C4.99944 6.26615 5.10486 6.52065 5.2925 6.70829C5.48014 6.89593 5.73464 7.00134 6 7.00134C6.26536 7.00134 6.51986 6.89593 6.7075 6.70829Z" fill="#2A2A2A"/>
</svg>
