<svg width="19" height="18" viewBox="0 0 19 18" fill="none" xmlns="http://www.w3.org/2000/svg">
<path d="M7.74983 17.8501C9.52983 17.1501 9.13983 15.2201 8.23983 14.0001C7.34983 12.7501 6.11983 11.8901 4.87983 11.0601C3.99491 10.5027 3.20492 9.80721 2.53983 9.00008C2.25983 8.67008 1.68983 8.06008 2.26983 7.94008C2.85983 7.82008 3.87983 8.40008 4.39983 8.62008C5.30983 9.00008 6.20983 9.44008 7.04983 9.96008L8.05983 8.26008C6.49983 7.23008 4.49983 6.32008 2.63983 6.05008C1.57983 5.89008 0.459833 6.11008 0.099833 7.26008C-0.220167 8.25008 0.289833 9.25008 0.869833 10.0301C2.23983 11.8601 4.36983 12.7401 5.95983 14.3201C6.29983 14.6501 6.70983 15.0401 6.90983 15.5001C7.11983 15.9401 7.06983 15.9701 6.59983 15.9701C5.35983 15.9701 3.80983 15.0001 2.79983 14.3601L1.78983 16.0601C3.31983 17.0001 5.87983 18.4701 7.74983 17.8501ZM18.8398 2.25008C19.0598 2.03008 19.0598 1.67008 18.8398 1.46008L17.5398 0.160083C17.4353 0.0586724 17.2954 0.00195313 17.1498 0.00195312C17.0042 0.00195312 16.8643 0.0586724 16.7598 0.160083L15.7398 1.18008L17.8198 3.26008M8.99983 7.92008V10.0001H11.0798L17.2298 3.85008L15.1498 1.77008L8.99983 7.92008Z" fill="#EB8917"/>
</svg>
