<svg width="32" height="32" viewBox="0 0 32 32" fill="none" xmlns="http://www.w3.org/2000/svg">
<path d="M24.2977 14.82H11.0479L16.8365 9.03131C17.2991 8.56869 17.2991 7.80952 16.8365 7.3469C16.7268 7.23693 16.5964 7.14969 16.4529 7.09016C16.3094 7.03064 16.1556 7 16.0003 7C15.8449 7 15.6911 7.03064 15.5476 7.09016C15.4041 7.14969 15.2737 7.23693 15.164 7.3469L7.3469 15.164C7.23693 15.2737 7.14969 15.4041 7.09017 15.5476C7.03064 15.6911 7 15.8449 7 16.0003C7 16.1556 7.03064 16.3094 7.09017 16.4529C7.14969 16.5964 7.23693 16.7268 7.3469 16.8365L15.164 24.6536C15.2738 24.7634 15.4042 24.8505 15.5477 24.91C15.6912 24.9694 15.8449 25 16.0003 25C16.1556 25 16.3094 24.9694 16.4528 24.91C16.5963 24.8505 16.7267 24.7634 16.8365 24.6536C16.9463 24.5438 17.0335 24.4134 17.0929 24.2699C17.1523 24.1264 17.1829 23.9726 17.1829 23.8173C17.1829 23.662 17.1523 23.5082 17.0929 23.3647C17.0335 23.2213 16.9463 23.0909 16.8365 22.9811L11.0479 17.1924H24.2977C24.9502 17.1924 25.4839 16.6586 25.4839 16.0062C25.4839 15.3538 24.9502 14.82 24.2977 14.82Z" fill="#2A2A2A"/>
</svg>
