<svg width="24" height="24" viewBox="0 0 24 24" fill="none" xmlns="http://www.w3.org/2000/svg">
<path fill-rule="evenodd" clip-rule="evenodd" d="M11.2929 3.29279C11.4804 3.10532 11.7348 3 11.9999 3C12.2651 3 12.5194 3.10532 12.7069 3.29279L18.7069 9.29279L20.7069 11.2928C20.8891 11.4814 20.9899 11.734 20.9876 11.9962C20.9853 12.2584 20.8801 12.5092 20.6947 12.6946C20.5093 12.88 20.2585 12.9852 19.9963 12.9875C19.7341 12.9897 19.4815 12.8889 19.2929 12.7068L18.9999 12.4138V18.9998C18.9999 19.5302 18.7892 20.0389 18.4141 20.414C18.0391 20.7891 17.5304 20.9998 16.9999 20.9998H13.9999C13.7347 20.9998 13.4803 20.8944 13.2928 20.7069C13.1053 20.5194 12.9999 20.265 12.9999 19.9998V16.9998H10.9999V19.9998C10.9999 20.265 10.8946 20.5194 10.707 20.7069C10.5195 20.8944 10.2651 20.9998 9.99992 20.9998H6.99992C6.46949 20.9998 5.96078 20.7891 5.58571 20.414C5.21063 20.0389 4.99992 19.5302 4.99992 18.9998V12.4138L4.70692 12.7068C4.51832 12.8889 4.26571 12.9897 4.00352 12.9875C3.74132 12.9852 3.49051 12.88 3.3051 12.6946C3.11969 12.5092 3.01452 12.2584 3.01224 11.9962C3.00997 11.734 3.11076 11.4814 3.29292 11.2928L5.29292 9.29279L11.2929 3.29279Z" fill="#7C2037"/>
</svg>
