<svg width="24" height="24" viewBox="0 0 24 24" fill="none" xmlns="http://www.w3.org/2000/svg">
<path d="M11.6518 3C12.3294 3.00738 13.0042 3.08585 13.6661 3.23354C13.8069 3.26498 13.9343 3.33961 14.0307 3.44702C14.127 3.55443 14.1873 3.68925 14.2033 3.83264L14.3602 5.24222C14.3824 5.44095 14.4509 5.6317 14.5602 5.79913C14.6695 5.96656 14.8166 6.10599 14.9897 6.2062C15.1627 6.30642 15.3568 6.36461 15.5565 6.37611C15.7561 6.38761 15.9556 6.35208 16.139 6.2724L17.4314 5.70469C17.5627 5.64686 17.7087 5.63125 17.8493 5.66002C17.9899 5.6888 18.118 5.76053 18.216 5.86531C19.1505 6.86319 19.8464 8.06002 20.2515 9.36572C20.2938 9.50302 20.2924 9.65009 20.2474 9.78655C20.2024 9.92301 20.1161 10.0421 20.0004 10.1273L18.8548 10.9728C18.6934 11.0912 18.5622 11.2458 18.4717 11.4243C18.3812 11.6028 18.3341 11.8001 18.3341 12.0003C18.3341 12.2004 18.3812 12.3977 18.4717 12.5762C18.5622 12.7547 18.6934 12.9094 18.8548 13.0277L20.0022 13.8723C20.1181 13.9576 20.2046 14.0768 20.2496 14.2134C20.2946 14.3501 20.2959 14.4974 20.2533 14.6348C19.8484 15.9403 19.1528 17.1371 18.2188 18.1352C18.121 18.2399 17.993 18.3117 17.8526 18.3407C17.7123 18.3696 17.5664 18.3542 17.4351 18.2967L16.1372 17.7272C15.954 17.6469 15.7546 17.6108 15.5549 17.6219C15.3552 17.633 15.161 17.691 14.9878 17.7911C14.8147 17.8913 14.6676 18.0307 14.5584 18.1983C14.4492 18.3658 14.381 18.5567 14.3593 18.7555L14.2024 20.1642C14.1867 20.3059 14.1277 20.4393 14.0333 20.5462C13.939 20.6531 13.8139 20.7283 13.6753 20.7614C12.3382 21.0795 10.9452 21.0795 9.60809 20.7614C9.46926 20.7284 9.34401 20.6533 9.2495 20.5464C9.15498 20.4395 9.09581 20.306 9.08008 20.1642L8.92407 18.7574C8.90141 18.5592 8.83259 18.3691 8.72315 18.2023C8.6137 18.0355 8.46667 17.8968 8.29386 17.7971C8.12106 17.6975 7.9273 17.6398 7.72814 17.6286C7.52898 17.6174 7.32997 17.6531 7.1471 17.7327L5.84922 18.3013C5.71782 18.3591 5.57173 18.3745 5.43116 18.3456C5.29059 18.3166 5.16249 18.2447 5.06458 18.1398C4.13047 17.1406 3.43516 15.9425 3.03099 14.6357C2.98843 14.4983 2.98974 14.351 3.03474 14.2144C3.07973 14.0777 3.16618 13.9585 3.28207 13.8732L4.42949 13.0277C4.59089 12.9094 4.72214 12.7547 4.81262 12.5762C4.9031 12.3977 4.95024 12.2004 4.95024 12.0003C4.95024 11.8001 4.9031 11.6028 4.81262 11.4243C4.72214 11.2458 4.59089 11.0912 4.42949 10.9728L3.28207 10.1291C3.16618 10.0439 3.07973 9.92463 3.03474 9.78799C2.98974 9.65134 2.98843 9.50407 3.03099 9.36664C3.43606 8.06094 4.132 6.86412 5.06643 5.86623C5.16445 5.76146 5.2926 5.68972 5.43316 5.66095C5.57373 5.63217 5.71976 5.64778 5.85106 5.70561L7.14341 6.27332C7.32712 6.35296 7.52696 6.3884 7.72685 6.37679C7.92675 6.36518 8.12114 6.30685 8.2944 6.20649C8.46766 6.10612 8.61497 5.96651 8.72449 5.79889C8.834 5.63126 8.90268 5.44028 8.925 5.24129L9.08192 3.83264C9.09776 3.68896 9.15818 3.55385 9.25469 3.44624C9.3512 3.33864 9.47898 3.26394 9.62009 3.23262C10.2875 3.08512 10.9684 3.00717 11.6518 3ZM11.6408 9.23094C10.9063 9.23094 10.2019 9.52271 9.68257 10.0421C9.16322 10.5614 8.87146 11.2658 8.87146 12.0003C8.87146 12.7347 9.16322 13.4391 9.68257 13.9584C10.2019 14.4778 10.9063 14.7696 11.6408 14.7696C12.3752 14.7696 13.0796 14.4778 13.599 13.9584C14.1183 13.4391 14.4101 12.7347 14.4101 12.0003C14.4101 11.2658 14.1183 10.5614 13.599 10.0421C13.0796 9.52271 12.3752 9.23094 11.6408 9.23094Z" fill="#9C906C"/>
</svg>
