<svg width="47" height="35" viewBox="0 0 47 35" fill="none" xmlns="http://www.w3.org/2000/svg">
<path d="M30.6248 18.9587C30.6248 20.8925 29.8566 22.7472 28.4892 24.1146C27.1217 25.4821 25.267 26.2503 23.3332 26.2503C21.3993 26.2503 19.5446 25.4821 18.1772 24.1146C16.8097 22.7472 16.0415 20.8925 16.0415 18.9587C16.0415 17.0248 16.8097 15.1701 18.1772 13.8027C19.5446 12.4352 21.3993 11.667 23.3332 11.667C25.267 11.667 27.1217 12.4352 28.4892 13.8027C29.8566 15.1701 30.6248 17.0248 30.6248 18.9587Z" fill="#F3ECD8"/>
<path d="M5.83333 5.83333C4.28624 5.83333 2.80251 6.44791 1.70854 7.54188C0.614582 8.63584 0 10.1196 0 11.6667L0 29.1667C0 30.7138 0.614582 32.1975 1.70854 33.2915C2.80251 34.3854 4.28624 35 5.83333 35H40.8333C42.3804 35 43.8642 34.3854 44.9581 33.2915C46.0521 32.1975 46.6667 30.7138 46.6667 29.1667V11.6667C46.6667 10.1196 46.0521 8.63584 44.9581 7.54188C43.8642 6.44791 42.3804 5.83333 40.8333 5.83333H37.415C35.868 5.833 34.3845 5.2182 33.2908 4.12417L30.8758 1.70917C29.7821 0.615129 28.2986 0.000330385 26.7517 0H19.915C18.368 0.000330385 16.8845 0.615129 15.7908 1.70917L13.3758 4.12417C12.2821 5.2182 10.7986 5.833 9.25167 5.83333H5.83333ZM7.29167 11.6667C6.90489 11.6667 6.53396 11.513 6.26047 11.2395C5.98698 10.966 5.83333 10.5951 5.83333 10.2083C5.83333 9.82156 5.98698 9.45063 6.26047 9.17714C6.53396 8.90365 6.90489 8.75 7.29167 8.75C7.67844 8.75 8.04937 8.90365 8.32286 9.17714C8.59635 9.45063 8.75 9.82156 8.75 10.2083C8.75 10.5951 8.59635 10.966 8.32286 11.2395C8.04937 11.513 7.67844 11.6667 7.29167 11.6667ZM33.5417 18.9583C33.5417 21.6658 32.4661 24.2623 30.5517 26.1767C28.6373 28.0911 26.0408 29.1667 23.3333 29.1667C20.6259 29.1667 18.0294 28.0911 16.115 26.1767C14.2005 24.2623 13.125 21.6658 13.125 18.9583C13.125 16.2509 14.2005 13.6544 16.115 11.74C18.0294 9.82552 20.6259 8.75 23.3333 8.75C26.0408 8.75 28.6373 9.82552 30.5517 11.74C32.4661 13.6544 33.5417 16.2509 33.5417 18.9583Z" fill="#F3ECD8"/>
</svg>
