<svg width="110" height="110" viewBox="0 0 110 110" fill="none" xmlns="http://www.w3.org/2000/svg">
<g clip-path="url(#clip0_173_2318)">
<path d="M55.0002 31.6766C63.7315 31.6766 70.8299 24.5781 70.8299 15.8469C70.8299 7.09844 63.7315 0 55.0002 0C46.269 0 39.1706 7.09844 39.1706 15.8297C39.1706 24.5609 46.269 31.6766 55.0002 31.6766ZM26.0565 71.0875H41.5424C51.6831 70.6063 53.4706 64.2984 53.6424 63.5594C53.7627 62.9234 54.3127 62.4766 54.9831 62.4766C55.6362 62.4766 56.1862 62.9234 56.3237 63.5766C56.3409 63.6453 57.8706 70.5891 68.5096 71.0875H83.9096C85.8002 71.0875 87.2784 69.6094 87.2784 67.7188V55.6531C87.5706 42.2812 66.4127 39.3078 57.3034 38.6547L56.8049 38.6203L61.9956 56.0656L76.4502 60.3281C77.1721 60.5516 77.5846 61.3078 77.3784 62.0297C77.2695 62.3742 77.0315 62.6631 76.7143 62.8361C76.3972 63.0091 76.0254 63.0527 75.6768 62.9578L60.5002 58.4719C60.2843 58.4083 60.0878 58.2916 59.9287 58.1325C59.7696 57.9733 59.6529 57.7768 59.5893 57.5609L54.8971 41.8344L47.8846 57.9047C47.7299 58.2484 47.4377 58.5234 47.0768 58.6609L34.2721 62.9578C34.169 62.9922 34.0315 63.0266 33.8596 63.0266C33.2752 63.0266 32.7596 62.6484 32.5706 62.0984C32.4502 61.7547 32.4674 61.3766 32.6393 61.05C32.8112 60.7234 33.0862 60.4828 33.4299 60.3797L45.6331 56.2891L53.3331 38.6375L52.7659 38.6719C43.6221 39.3078 22.3612 42.2469 22.6534 55.6188V67.7531C22.7049 69.575 24.2174 71.0875 26.0565 71.0875ZM90.819 91.3172C88.8252 89.6844 86.3846 88.7906 83.6346 88.6875L83.4284 88.6703C82.569 88.6703 81.6924 88.7562 80.7987 88.9453L65.7252 93.1047L66.7737 93.4656C71.5346 95.0984 74.4393 98.7078 74.3706 102.884C74.319 105.394 73.219 107.645 71.1909 109.398L70.469 110H83.2737C89.5815 110 94.7034 105.222 94.7034 99.3438C94.7206 96.2672 93.294 93.3453 90.819 91.3172Z" fill="#F4EEDC"/>
<path d="M64.6941 95.7172C63.1816 95.3563 61.5316 95.0297 59.7441 94.7375L58.8332 94.5828H58.816C58.7301 94.5656 58.6613 94.5484 58.541 94.5141L28.0676 88.6359C27.6035 88.55 27.1566 88.4813 26.6238 88.4469C26.5379 88.4469 26.4348 88.4297 26.3316 88.4125L26.2973 88.3953H26.1598C25.8504 88.3781 25.541 88.3609 25.2488 88.3609C22.6535 88.3609 20.3504 89.1172 18.6316 90.5609C16.466 92.3656 15.3145 95.0641 15.3145 98.3984C15.3145 104.809 20.5223 110.017 26.9332 110.017H61.8066C61.8582 110.017 62.9582 109.931 64.4363 109.639C68.7504 108.78 71.5691 106.133 71.6551 102.85C71.6894 99.5328 68.9738 96.7484 64.6941 95.7172ZM68.4754 73.8203C60.8957 73.4766 57.1145 70.2453 55.2754 67.6156L55.0004 67.2031L54.7254 67.6156C52.9035 70.2453 49.1566 73.4766 41.6285 73.8203H36.077V79.9734C36.077 80.3516 35.9051 80.7297 35.6129 81.0047L29.7348 86.1438L59.0223 93.3453L59.3316 93.3969L59.4348 93.4313L80.352 86.2297L74.3879 81.0047C74.2435 80.8742 74.1278 80.7151 74.0479 80.5377C73.968 80.3602 73.9258 80.1681 73.9238 79.9734V73.8203H68.4754Z" fill="#F4EEDC"/>
</g>
<defs>
<clipPath id="clip0_173_2318">
<rect width="110" height="110" fill="white"/>
</clipPath>
</defs>
</svg>
