<svg width="32" height="32" viewBox="0 0 32 32" fill="none" xmlns="http://www.w3.org/2000/svg">
<path d="M30.5123 15.3289C30.4011 15.1334 30.2521 14.9619 30.0739 14.8246C29.8958 14.6872 29.6921 14.5867 29.4748 14.5289C28.4888 14.2768 27.4675 14.1923 26.4535 14.2789C27.0373 11.7001 26.656 9.66512 26.2723 8.47887C26.1383 8.05981 25.8532 7.70564 25.4723 7.48541C25.0915 7.26518 24.6423 7.19466 24.2123 7.28762C22.8776 7.58698 21.614 8.14361 20.4923 8.92637C19.7116 7.22811 18.5313 5.74415 17.0523 4.60137C16.7488 4.3727 16.3791 4.24902 15.9991 4.24902C15.6192 4.24902 15.2495 4.3727 14.946 4.60137C13.4678 5.74466 12.288 7.22851 11.5073 8.92637C10.3852 8.14332 9.1212 7.58668 7.78601 7.28762C7.35601 7.19478 6.90684 7.26551 6.52618 7.486C6.14551 7.70649 5.86068 8.06093 5.72726 8.48012C5.34351 9.66637 4.96226 11.7014 5.54601 14.2801C4.53204 14.1935 3.51071 14.278 2.52476 14.5301C2.3074 14.588 2.10372 14.6885 1.9256 14.8258C1.74747 14.9632 1.59847 15.1346 1.48726 15.3301C1.37039 15.5311 1.29473 15.7533 1.26468 15.9838C1.23463 16.2143 1.25081 16.4484 1.31226 16.6726C1.72601 18.2076 2.99976 21.1251 6.86476 23.4389C10.7298 25.7526 14.161 25.7501 15.9998 25.7501C17.8385 25.7501 21.2648 25.7501 25.1323 23.4389C28.9998 21.1276 30.271 18.2076 30.6848 16.6714C30.7466 16.4474 30.7632 16.2133 30.7336 15.9828C30.7039 15.7523 30.6287 15.53 30.5123 15.3289ZM21.0598 10.3626C22.0889 9.58657 23.2706 9.03704 24.5273 8.75012C24.594 8.7365 24.6634 8.74814 24.7221 8.78278C24.7808 8.81742 24.8245 8.87259 24.8448 8.93762C25.3373 10.4651 25.821 13.6251 23.521 17.6251C22.5978 19.2028 21.4144 20.6131 20.021 21.7964C20.981 20.1251 21.7498 17.8664 21.7498 14.8964C21.7614 13.3581 21.5285 11.8278 21.0598 10.3626ZM7.15476 8.94137C7.17432 8.87565 7.21772 8.8196 7.27645 8.78422C7.33519 8.74884 7.40503 8.73668 7.47226 8.75012C8.72889 9.03704 9.9106 9.58657 10.9398 10.3626C10.471 11.8278 10.2381 13.3581 10.2498 14.8964C10.2498 17.8664 11.0185 20.1276 11.976 21.7926C10.5823 20.6097 9.39894 19.1993 8.47601 17.6214C6.17851 13.6251 6.66226 10.4651 7.15476 8.94137ZM7.63476 22.1501C4.22226 20.1114 3.11601 17.5976 2.75976 16.2751C2.75042 16.2415 2.74793 16.2064 2.75244 16.1718C2.75695 16.1373 2.76837 16.1039 2.78601 16.0739C2.81316 16.0256 2.85797 15.9898 2.91101 15.9739C3.92124 15.7228 4.97162 15.6774 5.99976 15.8401C6.31691 16.7183 6.71138 17.5667 7.17851 18.3751C8.46098 20.5883 10.2098 22.4958 12.3035 23.9651C10.6529 23.6384 9.0726 23.0241 7.63476 22.1501ZM15.9998 24.1076C14.9148 23.3326 11.7498 20.5826 11.7498 14.8964C11.7498 9.47637 14.6173 6.72887 15.8498 5.79887C15.893 5.76642 15.9457 5.74887 15.9998 5.74887C16.0539 5.74887 16.1065 5.76642 16.1498 5.79887C17.3823 6.72887 20.2498 9.47637 20.2498 14.8964C20.2498 20.6176 17.101 23.3339 15.9998 24.1076ZM29.2373 16.2801C28.881 17.5976 27.7748 20.1114 24.3623 22.1551C22.9228 23.0273 21.3413 23.6396 19.6898 23.9639C21.7835 22.4945 23.5323 20.587 24.8148 18.3739C25.284 17.566 25.6805 16.7181 25.9998 15.8401C27.0291 15.6786 28.0803 15.7258 29.091 15.9789C29.1441 15.9948 29.1889 16.0306 29.216 16.0789C29.2332 16.1091 29.2442 16.1425 29.2483 16.1771C29.2524 16.2117 29.2495 16.2467 29.2398 16.2801H29.2373Z" fill="#303030"/>
</svg>
