<svg width="24" height="24" viewBox="0 0 24 24" fill="none" xmlns="http://www.w3.org/2000/svg">
<path d="M10.9838 3.06901C10.4951 3.24128 10.1189 3.64209 9.97476 4.13432C9.92554 4.30659 9.91851 4.67928 9.91851 7.37244V10.4172H6.89134C3.63211 10.4172 3.63563 10.4172 3.3192 10.6C2.78127 10.9094 2.5 11.3911 2.5 11.9993C2.5 12.6041 2.78127 13.0893 3.31217 13.3951C3.64266 13.585 3.58641 13.5815 6.87376 13.5815H9.91851V16.6262C9.91851 19.9136 9.91499 19.8573 10.1049 20.1878C10.4107 20.7187 10.8959 21 11.5007 21C12.1089 21 12.5906 20.7187 12.9 20.1808C13.0828 19.8644 13.0828 19.8679 13.0828 16.6087V13.5815H16.1276C19.4149 13.5815 19.3587 13.585 19.6891 13.3951C20.22 13.0893 20.5013 12.6041 20.5013 11.9993C20.5013 11.4052 20.206 10.8954 19.7032 10.6141C19.3481 10.4137 19.3973 10.4172 16.11 10.4172H13.0828V7.37244C13.0828 4.67928 13.0758 4.30659 13.0265 4.13432C12.8824 3.63506 12.5027 3.23777 12.0034 3.06549C11.7397 2.97759 11.244 2.97759 10.9838 3.06901Z" fill="#9C906C"/>
</svg>
