<svg width="319" height="250" viewBox="0 0 319 250" fill="none" xmlns="http://www.w3.org/2000/svg">
<rect width="319" height="250" rx="6" fill="#FFFEF5"/>
<g clip-path="url(#clip0_406_2422)">
<path d="M183.672 85.5781C181.063 85.9844 178.484 87.4062 177.047 89.2656C176.656 89.7969 174.719 93.5938 171.984 99.2344C149.531 145.484 150.875 142.672 150.813 143.672C150.703 145.094 151.078 155.734 151.266 156.828C151.359 157.375 151.625 158.094 151.875 158.469L152.297 159.141L151.703 160.344C151 161.734 150.938 162.391 151.453 163.141C151.875 163.766 152.391 164.062 153.094 164.062C153.984 164.062 154.484 163.625 155.188 162.25L155.844 160.969L156.734 160.891C157.219 160.844 157.922 160.672 158.297 160.5C159.203 160.094 168.5 153.297 169.297 152.453C169.812 151.922 171.922 147.688 180.609 129.766C186.5 117.641 191.344 107.672 191.406 107.609C191.531 107.469 192.656 107.969 192.656 108.172C192.656 108.234 190.531 112.672 187.953 118.016C184.859 124.391 183.203 127.938 183.156 128.359C183.031 129.609 183.844 130.469 185.156 130.469C186.359 130.469 186.281 130.594 193.422 115.891C200.266 101.781 200.281 101.719 199.828 100.75C199.562 100.156 198.922 99.7812 198.125 99.7812C196.969 99.7656 196.656 100.078 195.516 102.422L194.516 104.5L193.906 104.25C193.562 104.094 193.281 103.938 193.281 103.875C193.281 103.812 193.75 102.797 194.312 101.609C195.719 98.6406 196 97.5469 195.891 95.5469C195.781 93.8125 195.562 92.9531 194.828 91.5156C193.438 88.7656 191 86.8281 187.875 85.9688C186.734 85.6562 184.516 85.4375 183.672 85.5781ZM186.672 89.75C188.766 90.3125 190.422 91.6562 191.359 93.5625C191.906 94.6406 191.953 94.8594 191.953 96C191.938 97.2344 191.922 97.3125 190.828 99.6094C189.344 102.719 185.469 110.672 185.391 110.75C185.328 110.812 173.922 105.359 173.703 105.156C173.625 105.094 174.953 102.172 176.656 98.6719C179.953 91.875 180.359 91.25 181.828 90.375C182.234 90.1406 182.859 89.8594 183.203 89.75C184.047 89.4844 185.672 89.4844 186.672 89.75ZM177.688 111.562C180.875 113.109 183.516 114.391 183.547 114.438C183.578 114.469 179.828 122.25 175.219 131.75L166.844 149.016L165.969 148.875C164.656 148.688 162.438 148.031 161.047 147.422C159.531 146.766 157.109 145.172 155.906 144.031L155.016 143.203L163.391 125.969C168 116.5 171.797 108.75 171.828 108.75C171.859 108.75 174.484 110.016 177.688 111.562ZM156.172 149.297C157.578 150.25 160.063 151.438 161.594 151.906C162.266 152.094 162.813 152.312 162.813 152.359C162.813 152.578 156.719 156.875 156.313 156.969C155.953 157.031 155.781 156.969 155.469 156.641C155.109 156.25 155.078 156.094 154.969 153.938C154.828 150.766 154.828 148.406 154.969 148.5C155.031 148.531 155.563 148.891 156.172 149.297Z" fill="#F3ECD8"/>
<path d="M121.156 109.218C120.984 109.281 120.641 109.562 120.422 109.843C119.719 110.672 119.891 112.031 120.781 112.672C121.047 112.859 122.641 113.203 125.703 113.734C130.75 114.625 132.594 115.062 134.656 115.828C137.375 116.859 139.328 118.203 140.531 119.89C141.438 121.172 141.75 122.125 141.844 123.828C142.016 127.281 140.813 130.406 135.641 139.89C131.469 147.562 130.281 150.093 129.344 153.375C129.063 154.375 128.984 155 128.984 156.718C128.984 158.718 129 158.875 129.422 159.718C130.141 161.187 131.063 162.062 132.703 162.859C134.984 163.968 136.75 164.297 141.578 164.468C145.266 164.593 146.094 164.5 146.719 163.89C147.578 163.031 147.469 161.593 146.516 160.906C146.031 160.562 145.844 160.547 141.953 160.453C137.547 160.343 136.125 160.156 134.594 159.422C133.031 158.687 132.641 157.828 132.938 155.781C133.328 153.093 134.734 149.922 139.016 142.031C143.609 133.578 144.891 130.687 145.563 127.265C145.906 125.437 145.875 122.703 145.484 121.203C144.219 116.343 139.891 112.906 132.781 111.093C131.375 110.718 122.281 109.062 121.797 109.078C121.625 109.078 121.344 109.14 121.156 109.218Z" fill="#F3ECD8"/>
</g>
<defs>
<clipPath id="clip0_406_2422">
<rect width="80" height="80" fill="white" transform="translate(120 85)"/>
</clipPath>
</defs>
</svg>
