<svg width="343" height="343" viewBox="0 0 343 343" fill="none" xmlns="http://www.w3.org/2000/svg">
<rect width="343" height="343" rx="8" fill="#FFFEF5"/>
<path d="M128.158 281.896L130.524 281.766C130.593 282.373 130.654 283.04 130.706 283.768C130.758 284.496 130.793 285.233 130.81 285.978C130.827 286.706 130.836 287.408 130.836 288.084V294.948C130.732 294.983 130.559 295.026 130.316 295.078C130.091 295.13 129.857 295.156 129.614 295.156C129.111 295.156 128.739 295.061 128.496 294.87C128.271 294.679 128.158 294.367 128.158 293.934V281.896ZM141.132 292.296L138.74 292.4C138.584 291.013 138.489 289.627 138.454 288.24C138.437 286.836 138.428 285.484 138.428 284.184V279.218C138.567 279.183 138.749 279.149 138.974 279.114C139.199 279.062 139.433 279.036 139.676 279.036C140.179 279.036 140.543 279.131 140.768 279.322C141.011 279.495 141.132 279.807 141.132 280.258V292.296ZM141.132 291.36V294.636C140.959 294.792 140.716 294.913 140.404 295C140.109 295.104 139.771 295.156 139.39 295.156C138.922 295.156 138.506 295.078 138.142 294.922C137.778 294.749 137.457 294.402 137.18 293.882L132.838 286.342C132.595 285.891 132.335 285.415 132.058 284.912C131.798 284.409 131.547 283.924 131.304 283.456C131.061 282.988 130.862 282.581 130.706 282.234L128.158 282.832V279.634C128.331 279.443 128.574 279.296 128.886 279.192C129.198 279.088 129.536 279.036 129.9 279.036C130.368 279.036 130.784 279.123 131.148 279.296C131.512 279.469 131.833 279.807 132.11 280.31L136.478 287.85C136.738 288.283 136.998 288.76 137.258 289.28C137.518 289.783 137.761 290.268 137.986 290.736C138.229 291.204 138.428 291.611 138.584 291.958L141.132 291.36ZM156.733 288.916C156.733 290.216 156.482 291.351 155.979 292.322C155.476 293.293 154.766 294.047 153.847 294.584C152.928 295.104 151.845 295.364 150.597 295.364C149.349 295.364 148.266 295.104 147.347 294.584C146.428 294.047 145.718 293.301 145.215 292.348C144.712 291.377 144.461 290.233 144.461 288.916C144.461 287.599 144.712 286.463 145.215 285.51C145.735 284.539 146.454 283.794 147.373 283.274C148.309 282.737 149.384 282.468 150.597 282.468C151.828 282.468 152.902 282.737 153.821 283.274C154.74 283.794 155.45 284.539 155.953 285.51C156.473 286.463 156.733 287.599 156.733 288.916ZM150.597 284.626C149.557 284.626 148.725 285.007 148.101 285.77C147.494 286.533 147.191 287.581 147.191 288.916C147.191 290.268 147.486 291.325 148.075 292.088C148.682 292.833 149.522 293.206 150.597 293.206C151.672 293.206 152.504 292.825 153.093 292.062C153.7 291.299 154.003 290.251 154.003 288.916C154.003 287.581 153.7 286.533 153.093 285.77C152.486 285.007 151.654 284.626 150.597 284.626ZM176.044 286.966C176.044 285.597 175.784 284.487 175.264 283.638C174.744 282.771 174.051 282.139 173.184 281.74C172.318 281.324 171.338 281.116 170.246 281.116C169.778 281.116 169.354 281.133 168.972 281.168C168.608 281.203 168.262 281.246 167.932 281.298V292.842C168.296 292.929 168.695 292.989 169.128 293.024C169.562 293.059 169.995 293.076 170.428 293.076C172.231 293.076 173.618 292.565 174.588 291.542C175.559 290.502 176.044 288.977 176.044 286.966ZM178.826 286.966C178.826 288.838 178.48 290.398 177.786 291.646C177.093 292.877 176.114 293.795 174.848 294.402C173.6 295.009 172.127 295.312 170.428 295.312C169.874 295.312 169.224 295.286 168.478 295.234C167.733 295.182 167.04 295.052 166.398 294.844C165.618 294.584 165.228 294.125 165.228 293.466V280.414C165.228 280.119 165.306 279.894 165.462 279.738C165.636 279.565 165.87 279.435 166.164 279.348C166.754 279.157 167.404 279.036 168.114 278.984C168.825 278.915 169.518 278.88 170.194 278.88C171.91 278.88 173.41 279.183 174.692 279.79C175.992 280.379 177.006 281.272 177.734 282.468C178.462 283.647 178.826 285.146 178.826 286.966ZM186.503 293.284C187.127 293.284 187.655 293.223 188.089 293.102C188.539 292.963 188.869 292.833 189.077 292.712V289.358L186.191 289.644C185.393 289.713 184.787 289.895 184.371 290.19C183.972 290.467 183.773 290.883 183.773 291.438C183.773 292.01 183.998 292.461 184.449 292.79C184.899 293.119 185.584 293.284 186.503 293.284ZM186.425 282.468C188.037 282.468 189.311 282.823 190.247 283.534C191.2 284.227 191.677 285.328 191.677 286.836V292.894C191.677 293.293 191.59 293.605 191.417 293.83C191.243 294.055 191.001 294.255 190.689 294.428C190.238 294.688 189.649 294.905 188.921 295.078C188.21 295.269 187.404 295.364 186.503 295.364C184.821 295.364 183.504 295.043 182.551 294.402C181.615 293.743 181.147 292.781 181.147 291.516C181.147 290.372 181.519 289.497 182.265 288.89C183.01 288.266 184.067 287.893 185.437 287.772L189.077 287.408V286.81C189.077 286.03 188.825 285.467 188.323 285.12C187.82 284.773 187.135 284.6 186.269 284.6C185.575 284.6 184.899 284.695 184.241 284.886C183.599 285.077 183.027 285.293 182.525 285.536C182.369 285.397 182.23 285.233 182.109 285.042C181.987 284.834 181.927 284.617 181.927 284.392C181.927 283.855 182.221 283.447 182.811 283.17C183.296 282.945 183.851 282.771 184.475 282.65C185.116 282.529 185.766 282.468 186.425 282.468ZM195.233 288.136H197.885V291.464C197.885 292.088 198.067 292.53 198.431 292.79C198.795 293.05 199.306 293.18 199.965 293.18C200.242 293.18 200.554 293.137 200.901 293.05C201.247 292.963 201.533 292.859 201.759 292.738C201.88 292.859 201.984 293.015 202.071 293.206C202.175 293.379 202.227 293.579 202.227 293.804C202.227 294.255 201.993 294.627 201.525 294.922C201.074 295.199 200.389 295.338 199.471 295.338C198.188 295.338 197.157 295.052 196.377 294.48C195.614 293.908 195.233 292.955 195.233 291.62V288.136ZM196.741 285.224V283.092H201.915C201.984 283.196 202.045 283.343 202.097 283.534C202.166 283.725 202.201 283.924 202.201 284.132C202.201 284.496 202.114 284.773 201.941 284.964C201.785 285.137 201.559 285.224 201.265 285.224H196.741ZM197.885 288.864H195.233V279.478C195.337 279.443 195.501 279.4 195.727 279.348C195.952 279.296 196.195 279.27 196.455 279.27C196.94 279.27 197.295 279.365 197.521 279.556C197.763 279.747 197.885 280.059 197.885 280.492V288.864ZM209.684 293.284C210.308 293.284 210.837 293.223 211.27 293.102C211.721 292.963 212.05 292.833 212.258 292.712V289.358L209.372 289.644C208.575 289.713 207.968 289.895 207.552 290.19C207.154 290.467 206.954 290.883 206.954 291.438C206.954 292.01 207.18 292.461 207.63 292.79C208.081 293.119 208.766 293.284 209.684 293.284ZM209.606 282.468C211.218 282.468 212.492 282.823 213.428 283.534C214.382 284.227 214.858 285.328 214.858 286.836V292.894C214.858 293.293 214.772 293.605 214.598 293.83C214.425 294.055 214.182 294.255 213.87 294.428C213.42 294.688 212.83 294.905 212.102 295.078C211.392 295.269 210.586 295.364 209.684 295.364C208.003 295.364 206.686 295.043 205.732 294.402C204.796 293.743 204.328 292.781 204.328 291.516C204.328 290.372 204.701 289.497 205.446 288.89C206.192 288.266 207.249 287.893 208.618 287.772L212.258 287.408V286.81C212.258 286.03 212.007 285.467 211.504 285.12C211.002 284.773 210.317 284.6 209.45 284.6C208.757 284.6 208.081 284.695 207.422 284.886C206.781 285.077 206.209 285.293 205.706 285.536C205.55 285.397 205.412 285.233 205.29 285.042C205.169 284.834 205.108 284.617 205.108 284.392C205.108 283.855 205.403 283.447 205.992 283.17C206.478 282.945 207.032 282.771 207.656 282.65C208.298 282.529 208.948 282.468 209.606 282.468Z" fill="#A7A7A7"/>
<g clip-path="url(#clip0_398_2781)">
<path d="M171.5 133.97C185.549 133.97 196.971 122.548 196.971 108.499C196.971 94.422 185.549 83 171.5 83C157.451 83 146.028 94.422 146.028 108.471C146.028 122.521 157.451 133.97 171.5 133.97ZM124.927 197.386H149.845C166.162 196.612 169.038 186.462 169.315 185.273C169.509 184.25 170.394 183.53 171.472 183.53C172.523 183.53 173.408 184.25 173.629 185.3C173.657 185.411 176.118 196.584 193.238 197.386H218.018C221.06 197.386 223.438 195.008 223.438 191.966V172.551C223.909 151.034 189.864 146.25 175.206 145.199L174.404 145.144L182.756 173.215L206.015 180.073C207.176 180.433 207.84 181.65 207.508 182.811C207.333 183.366 206.95 183.831 206.44 184.109C205.93 184.387 205.331 184.458 204.77 184.305L180.35 177.087C180.003 176.984 179.686 176.797 179.43 176.54C179.174 176.284 178.986 175.968 178.884 175.621L171.334 150.315L160.05 176.174C159.801 176.727 159.331 177.17 158.75 177.391L138.146 184.305C137.981 184.36 137.759 184.415 137.483 184.415C136.542 184.415 135.713 183.807 135.408 182.922C135.215 182.369 135.243 181.76 135.519 181.235C135.796 180.71 136.238 180.322 136.791 180.156L156.427 173.574L168.817 145.171L167.905 145.227C153.191 146.25 118.981 150.979 119.451 172.496V192.021C119.534 194.952 121.968 197.386 124.927 197.386ZM229.136 229.938C225.927 227.31 222 225.872 217.575 225.706L217.243 225.679C215.861 225.679 214.45 225.817 213.012 226.121L188.757 232.814L190.444 233.395C198.105 236.022 202.779 241.83 202.668 248.55C202.586 252.588 200.816 256.211 197.552 259.032L196.391 260H216.994C227.144 260 235.386 252.312 235.386 242.853C235.413 237.903 233.118 233.201 229.136 229.938Z" fill="#F3ECD8"/>
<path d="M187.098 237.017C184.664 236.437 182.009 235.911 179.133 235.441L177.667 235.192H177.64C177.501 235.164 177.391 235.137 177.197 235.082L128.163 225.623C127.416 225.485 126.697 225.374 125.839 225.319C125.701 225.319 125.535 225.291 125.369 225.264L125.314 225.236H125.093C124.595 225.208 124.097 225.181 123.627 225.181C119.451 225.181 115.745 226.397 112.979 228.721C109.495 231.624 107.642 235.967 107.642 241.332C107.642 251.648 116.021 260.027 126.337 260.027H182.452C182.535 260.027 184.305 259.889 186.683 259.419C193.625 258.036 198.161 253.777 198.299 248.495C198.354 243.157 193.984 238.677 187.098 237.017ZM193.182 201.783C180.986 201.23 174.902 196.031 171.942 191.799L171.5 191.136L171.057 191.799C168.126 196.031 162.097 201.23 149.983 201.783H141.05V211.684C141.05 212.293 140.774 212.901 140.304 213.344L130.845 221.613L177.971 233.201L178.469 233.284L178.635 233.339L212.293 221.751L202.696 213.344C202.464 213.134 202.278 212.878 202.149 212.592C202.021 212.307 201.953 211.997 201.949 211.684V201.783H193.182Z" fill="#F3ECD8"/>
</g>
<defs>
<clipPath id="clip0_398_2781">
<rect width="177" height="177" fill="white" transform="translate(83 83)"/>
</clipPath>
</defs>
</svg>
